<svg xmlns="http://www.w3.org/2000/svg" viewBox="0 0 1024 1024">
  <defs>
    <clipPath id="cl">
      <rect width="1024" height="1024" rx="220"/>
    </clipPath>
    <linearGradient id="phonegrad" x1="0%" y1="0%" x2="0%" y2="100%">
      <stop offset="0%" stop-color="#1C1C1E"/>
      <stop offset="100%" stop-color="#0A0A0A"/>
    </linearGradient>
    <linearGradient id="sidegrad" x1="0%" y1="0%" x2="100%" y2="0%">
      <stop offset="0%" stop-color="#3A3A3C"/>
      <stop offset="50%" stop-color="#FFFFFF" stop-opacity="0.6"/>
      <stop offset="100%" stop-color="#2C2C2E"/>
    </linearGradient>
  </defs>
  <g clip-path="url(#cl)">
  <rect width="1024" height="1024" fill="#080808"/>
  <g transform="rotate(-7 512 512)">
    <rect x="72" y="198" width="880" height="548" rx="58" fill="url(#sidegrad)"/>
    <rect x="78" y="204" width="868" height="536" rx="54" fill="url(#phonegrad)"/>
    <rect x="92" y="218" width="840" height="508" rx="44" fill="#050505"/>
    <rect x="92" y="218" width="840" height="100" rx="44" fill="#FFFFFF" opacity="0.025"/>
    <rect x="428" y="228" width="168" height="28" rx="14" fill="#000000"/>
    <circle cx="576" cy="242" r="9" fill="#0A0A0A" stroke="#1C1C1E" stroke-width="2"/>
    <circle cx="576" cy="242" r="4" fill="#1A1A1A"/>
    <circle cx="578" cy="240" r="1.5" fill="#FFFFFF" opacity="0.4"/>
    <circle cx="556" cy="242" r="3" fill="#1A1A1A"/>
    <rect x="92" y="204" width="840" height="3" rx="2" fill="#FFFFFF" opacity="0.12"/>
    <rect x="78" y="218" width="3" height="508" rx="2" fill="#FFFFFF" opacity="0.08"/>
    <rect x="919" y="218" width="3" height="508" rx="2" fill="#FFFFFF" opacity="0.06"/>
    <rect x="92" y="719" width="840" height="3" rx="2" fill="#FFFFFF" opacity="0.06"/>
    <rect x="72" y="312" width="6" height="52" rx="3" fill="url(#sidegrad)"/>
    <rect x="72" y="376" width="6" height="52" rx="3" fill="url(#sidegrad)"/>
    <rect x="72" y="264" width="6" height="30" rx="3" fill="url(#sidegrad)"/>
    <rect x="946" y="340" width="6" height="72" rx="3" fill="url(#sidegrad)"/>
    <rect x="462" y="700" width="100" height="5" rx="3" fill="#FFFFFF" opacity="0.18"/>
    <text x="116" y="252" font-family="Arial Black" font-size="16" fill="#FFFFFF" opacity="0.5">6:50</text>
    <rect x="92" y="262" width="840" height="48" fill="#0D0D0D" opacity="0.9"/>
    <line x1="92" y1="310" x2="932" y2="310" stroke="#FFFFFF" stroke-width="1" opacity="0.08"/>
    <circle cx="114" cy="286" r="6" fill="#00FF88"/>
    <text x="128" y="291" font-family="Courier New" font-size="15" fill="#FFFFFF" opacity="0.35">10.115.30.25</text>
    <line x1="862" y1="279" x2="884" y2="279" stroke="#FFFFFF" stroke-width="3.5" stroke-linecap="round" opacity="0.4"/>
    <line x1="866" y1="287" x2="880" y2="287" stroke="#FFFFFF" stroke-width="3.5" stroke-linecap="round" opacity="0.4"/>
    <line x1="862" y1="295" x2="884" y2="295" stroke="#FFFFFF" stroke-width="3.5" stroke-linecap="round" opacity="0.4"/>
    <line x1="900" y1="279" x2="916" y2="295" stroke="#FFFFFF" stroke-width="3.5" stroke-linecap="round" opacity="0.4"/>
    <line x1="900" y1="295" x2="916" y2="279" stroke="#FFFFFF" stroke-width="3.5" stroke-linecap="round" opacity="0.4"/>
    <circle cx="512" cy="490" r="152" fill="none" stroke="#FFFFFF" stroke-width="20"/>
    <circle cx="512" cy="490" r="134" fill="none" stroke="#FFFFFF" stroke-width="3" opacity="0.15"/>
    <circle cx="512" cy="490" r="48" fill="#0C0C0C"/>
    <circle cx="512" cy="490" r="48" fill="none" stroke="#FFFFFF" stroke-width="14"/>
    <circle cx="512" cy="490" r="9" fill="#FFFFFF"/>
    <line x1="512" y1="442" x2="512" y2="344" stroke="#FFFFFF" stroke-width="17" stroke-linecap="round"/>
    <line x1="512" y1="442" x2="512" y2="344" stroke="#FFFFFF" stroke-width="17" stroke-linecap="round" transform="rotate(120 512 490)"/>
    <line x1="512" y1="442" x2="512" y2="344" stroke="#FFFFFF" stroke-width="17" stroke-linecap="round" transform="rotate(240 512 490)"/>
    <circle cx="512" cy="344" r="12" fill="#FFFFFF"/>
    <path d="M 404,490 A 108,108 0 0,1 620,490" fill="none" stroke="#FFFFFF" stroke-width="5" opacity="0.18" stroke-linecap="round"/>
    <rect x="140" y="652" width="744" height="7" rx="4" fill="#FFFFFF" opacity="0.08"/>
    <rect x="140" y="652" width="430" height="7" rx="4" fill="#FFFFFF" opacity="0.45"/>
    <rect x="508" y="645" width="8" height="21" rx="4" fill="#FFFFFF" opacity="0.25"/>
    <text x="126" y="658" font-family="Arial" font-size="14" fill="#FFFFFF" opacity="0.2" text-anchor="middle">◀</text>
    <text x="898" y="658" font-family="Arial" font-size="14" fill="#FFFFFF" opacity="0.2" text-anchor="middle">▶</text>
    <rect x="110" y="326" width="118" height="86" rx="20" fill="#111111" stroke="#FFFFFF" stroke-width="8"/>
    <line x1="169" y1="354" x2="169" y2="380" stroke="#FFFFFF" stroke-width="8" stroke-linecap="round" opacity="0.7"/>
    <line x1="155" y1="374" x2="169" y2="390" stroke="#FFFFFF" stroke-width="8" stroke-linecap="round" opacity="0.7"/>
    <line x1="183" y1="374" x2="169" y2="390" stroke="#FFFFFF" stroke-width="8" stroke-linecap="round" opacity="0.7"/>
    <text x="169" y="402" font-family="Arial Black" font-size="12" fill="#FFFFFF" text-anchor="middle" opacity="0.4" letter-spacing="1">GEAR-</text>
    <rect x="110" y="430" width="118" height="116" rx="20" fill="#111111" stroke="#FFFFFF" stroke-width="8"/>
    <rect x="152" y="456" width="8" height="36" rx="4" fill="#FFFFFF" opacity="0.7"/>
    <rect x="165" y="450" width="8" height="42" rx="4" fill="#FFFFFF" opacity="0.7"/>
    <rect x="178" y="454" width="8" height="38" rx="4" fill="#FFFFFF" opacity="0.7"/>
    <rect x="148" y="490" width="42" height="8" rx="4" fill="#FFFFFF" opacity="0.7"/>
    <text x="169" y="534" font-family="Arial Black" font-size="12" fill="#FFFFFF" text-anchor="middle" opacity="0.4" letter-spacing="1">BRAKE</text>
    <rect x="796" y="326" width="118" height="86" rx="20" fill="#111111" stroke="#FFFFFF" stroke-width="8"/>
    <line x1="855" y1="390" x2="855" y2="364" stroke="#FFFFFF" stroke-width="8" stroke-linecap="round" opacity="0.7"/>
    <line x1="841" y1="370" x2="855" y2="354" stroke="#FFFFFF" stroke-width="8" stroke-linecap="round" opacity="0.7"/>
    <line x1="869" y1="370" x2="855" y2="354" stroke="#FFFFFF" stroke-width="8" stroke-linecap="round" opacity="0.7"/>
    <text x="855" y="402" font-family="Arial Black" font-size="12" fill="#FFFFFF" text-anchor="middle" opacity="0.4" letter-spacing="1">GEAR+</text>
    <rect x="796" y="430" width="118" height="116" rx="20" fill="#111111" stroke="#FFFFFF" stroke-width="8"/>
    <path d="M 828,516 A 27,27 0 0,1 882,516" fill="none" stroke="#FFFFFF" stroke-width="7" stroke-linecap="round" opacity="0.7"/>
    <line x1="855" y1="516" x2="870" y2="494" stroke="#FFFFFF" stroke-width="6" stroke-linecap="round" opacity="0.7"/>
    <circle cx="855" cy="516" r="5" fill="#FFFFFF" opacity="0.7"/>
    <text x="855" y="534" font-family="Arial Black" font-size="12" fill="#FFFFFF" text-anchor="middle" opacity="0.4" letter-spacing="3">GAS</text>
  </g>
  </g>
</svg>
